<svg xmlns="http://www.w3.org/2000/svg" viewBox="0 0 800 600" width="800" height="600" role="img" aria-label="Judd, 100 Untitled Works in Mill Aluminum (1982–1986), Chinati Foundation — interpretación gráfica"><rect x="0" y="0" width="800" height="600" fill="#e9e6e0"/><rect x="60.0" y="60.0" width="124.8" height="109.5" fill="#d3d6d9" stroke="#1a1a1a" stroke-width="1.5"/><rect x="198.8" y="60.0" width="124.8" height="109.5" fill="#d3d6d9" stroke="#1a1a1a" stroke-width="1.5"/><rect x="337.6" y="60.0" width="124.8" height="109.5" fill="#d3d6d9" stroke="#1a1a1a" stroke-width="1.5"/><rect x="476.4" y="60.0" width="124.8" height="109.5" fill="#d3d6d9" stroke="#1a1a1a" stroke-width="1.5"/><rect x="615.2" y="60.0" width="124.8" height="109.5" fill="#d3d6d9" stroke="#1a1a1a" stroke-width="1.5"/><rect x="60.0" y="183.5" width="124.8" height="109.5" fill="#d3d6d9" stroke="#1a1a1a" stroke-width="1.5"/><rect x="198.8" y="183.5" width="124.8" height="109.5" fill="#d3d6d9" stroke="#1a1a1a" stroke-width="1.5"/><rect x="337.6" y="183.5" width="124.8" height="109.5" fill="#d3d6d9" stroke="#1a1a1a" stroke-width="1.5"/><rect x="476.4" y="183.5" width="124.8" height="109.5" fill="#d3d6d9" stroke="#1a1a1a" stroke-width="1.5"/><rect x="615.2" y="183.5" width="124.8" height="109.5" fill="#d3d6d9" stroke="#1a1a1a" stroke-width="1.5"/><rect x="60.0" y="307.0" width="124.8" height="109.5" fill="#d3d6d9" stroke="#1a1a1a" stroke-width="1.5"/><rect x="198.8" y="307.0" width="124.8" height="109.5" fill="#d3d6d9" stroke="#1a1a1a" stroke-width="1.5"/><rect x="337.6" y="307.0" width="124.8" height="109.5" fill="#d3d6d9" stroke="#1a1a1a" stroke-width="1.5"/><rect x="476.4" y="307.0" width="124.8" height="109.5" fill="#d3d6d9" stroke="#1a1a1a" stroke-width="1.5"/><rect x="615.2" y="307.0" width="124.8" height="109.5" fill="#d3d6d9" stroke="#1a1a1a" stroke-width="1.5"/><rect x="60.0" y="430.5" width="124.8" height="109.5" fill="#d3d6d9" stroke="#1a1a1a" stroke-width="1.5"/><rect x="198.8" y="430.5" width="124.8" height="109.5" fill="#d3d6d9" stroke="#1a1a1a" stroke-width="1.5"/><rect x="337.6" y="430.5" width="124.8" height="109.5" fill="#d3d6d9" stroke="#1a1a1a" stroke-width="1.5"/><rect x="476.4" y="430.5" width="124.8" height="109.5" fill="#d3d6d9" stroke="#1a1a1a" stroke-width="1.5"/><rect x="615.2" y="430.5" width="124.8" height="109.5" fill="#d3d6d9" stroke="#1a1a1a" stroke-width="1.5"/></svg>